<?xml version="1.0" encoding="UTF-8" standalone="no"?>
<!-- Generator: Gravit.io -->
<svg xmlns="http://www.w3.org/2000/svg" xmlns:xlink="http://www.w3.org/1999/xlink" style="isolation:isolate" viewBox="440.016 221.836 289.992 48" width="289.992pt" height="48pt"><defs><clipPath id="_clipPath_5bkHHbG2RzJ4RH9Tk6pH3fWOVlEzhwrj"><rect x="440.016" y="221.836" width="289.992" height="48"/></clipPath></defs><g clip-path="url(#_clipPath_5bkHHbG2RzJ4RH9Tk6pH3fWOVlEzhwrj)"><path d=" M 661.383 245.156 L 661.383 245.156 L 661.383 245.156 Q 661.383 249.047 662.66 251.039 L 662.66 251.039 L 662.66 251.039 Q 663.938 253.031 666.82 253.031 L 666.82 253.031 L 666.82 253.031 Q 669.68 253.031 670.934 251.051 L 670.934 251.051 L 670.934 251.051 Q 672.188 249.07 672.188 245.156 L 672.188 245.156 L 672.188 245.156 Q 672.188 241.266 670.922 239.32 L 670.922 239.32 L 670.922 239.32 Q 669.656 237.375 666.773 237.375 L 666.773 237.375 L 666.773 237.375 Q 663.914 237.375 662.648 239.309 L 662.648 239.309 L 662.648 239.309 Q 661.383 241.242 661.383 245.156 Z  M 679.5 245.156 L 679.5 245.156 L 679.5 245.156 Q 679.5 251.555 676.125 255.164 L 676.125 255.164 L 676.125 255.164 Q 672.75 258.773 666.727 258.773 L 666.727 258.773 L 666.727 258.773 Q 662.953 258.773 660.07 257.121 L 660.07 257.121 L 660.07 257.121 Q 657.188 255.469 655.641 252.375 L 655.641 252.375 L 655.641 252.375 Q 654.094 249.281 654.094 245.156 L 654.094 245.156 L 654.094 245.156 Q 654.094 238.734 657.445 235.172 L 657.445 235.172 L 657.445 235.172 Q 660.797 231.609 666.867 231.609 L 666.867 231.609 L 666.867 231.609 Q 670.641 231.609 673.523 233.25 L 673.523 233.25 L 673.523 233.25 Q 676.406 234.891 677.953 237.961 L 677.953 237.961 L 677.953 237.961 Q 679.5 241.031 679.5 245.156 Z  M 700.031 231.609 L 700.031 231.609 L 700.031 231.609 Q 701.484 231.609 702.445 231.82 L 702.445 231.82 L 701.906 238.523 L 701.906 238.523 Q 701.039 238.289 699.797 238.289 L 699.797 238.289 L 699.797 238.289 Q 696.375 238.289 694.465 240.047 L 694.465 240.047 L 694.465 240.047 Q 692.555 241.805 692.555 244.969 L 692.555 244.969 L 692.555 258.305 L 685.406 258.305 L 685.406 232.102 L 690.82 232.102 L 691.875 236.508 L 692.227 236.508 L 692.227 236.508 Q 693.445 234.305 695.52 232.957 L 695.52 232.957 L 695.52 232.957 Q 697.594 231.609 700.031 231.609 Z  M 720.867 232.102 L 730.008 232.102 L 730.008 235.734 L 725.906 236.789 L 725.906 236.789 Q 727.031 238.547 727.031 240.727 L 727.031 240.727 L 727.031 240.727 Q 727.031 244.945 724.09 247.301 L 724.09 247.301 L 724.09 247.301 Q 721.148 249.656 715.922 249.656 L 715.922 249.656 L 714.633 249.586 L 713.578 249.469 L 713.578 249.469 Q 712.477 250.313 712.477 251.344 L 712.477 251.344 L 712.477 251.344 Q 712.477 252.891 716.414 252.891 L 716.414 252.891 L 720.867 252.891 L 720.867 252.891 Q 725.18 252.891 727.441 254.742 L 727.441 254.742 L 727.441 254.742 Q 729.703 256.594 729.703 260.18 L 729.703 260.18 L 729.703 260.18 Q 729.703 264.773 725.871 267.305 L 725.871 267.305 L 725.871 267.305 Q 722.039 269.836 714.867 269.836 L 714.867 269.836 L 714.867 269.836 Q 709.383 269.836 706.488 267.926 L 706.488 267.926 L 706.488 267.926 Q 703.594 266.016 703.594 262.57 L 703.594 262.57 L 703.594 262.57 Q 703.594 260.203 705.07 258.609 L 705.07 258.609 L 705.07 258.609 Q 706.547 257.016 709.406 256.336 L 709.406 256.336 L 709.406 256.336 Q 708.305 255.867 707.484 254.801 L 707.484 254.801 L 707.484 254.801 Q 706.664 253.734 706.664 252.539 L 706.664 252.539 L 706.664 252.539 Q 706.664 251.039 707.531 250.043 L 707.531 250.043 L 707.531 250.043 Q 708.398 249.047 710.039 248.086 L 710.039 248.086 L 710.039 248.086 Q 707.977 247.195 706.77 245.227 L 706.77 245.227 L 706.77 245.227 Q 705.563 243.258 705.563 240.586 L 705.563 240.586 L 705.563 240.586 Q 705.563 236.297 708.352 233.953 L 708.352 233.953 L 708.352 233.953 Q 711.141 231.609 716.32 231.609 L 716.32 231.609 L 716.32 231.609 Q 717.422 231.609 718.934 231.809 L 718.934 231.809 L 718.934 231.809 Q 720.445 232.008 720.867 232.102 L 720.867 232.102 Z  M 709.781 262.008 L 709.781 262.008 L 709.781 262.008 Q 709.781 263.484 711.199 264.328 L 711.199 264.328 L 711.199 264.328 Q 712.617 265.172 715.172 265.172 L 715.172 265.172 L 715.172 265.172 Q 719.016 265.172 721.195 264.117 L 721.195 264.117 L 721.195 264.117 Q 723.375 263.063 723.375 261.234 L 723.375 261.234 L 723.375 261.234 Q 723.375 259.758 722.086 259.195 L 722.086 259.195 L 722.086 259.195 Q 720.797 258.633 718.102 258.633 L 718.102 258.633 L 714.398 258.633 L 714.398 258.633 Q 712.43 258.633 711.105 259.559 L 711.105 259.559 L 711.105 259.559 Q 709.781 260.484 709.781 262.008 Z  M 712.383 240.68 L 712.383 240.68 L 712.383 240.68 Q 712.383 242.813 713.355 244.055 L 713.355 244.055 L 713.355 244.055 Q 714.328 245.297 716.32 245.297 L 716.32 245.297 L 716.32 245.297 Q 718.336 245.297 719.273 244.055 L 719.273 244.055 L 719.273 244.055 Q 720.211 242.813 720.211 240.68 L 720.211 240.68 L 720.211 240.68 Q 720.211 235.945 716.32 235.945 L 716.32 235.945 L 716.32 235.945 Q 712.383 235.945 712.383 240.68 Z  M 640.992 254.953 L 640.992 254.953 L 640.992 254.953 Q 640.992 252.984 642.047 251.977 L 642.047 251.977 L 642.047 251.977 Q 643.102 250.969 645.117 250.969 L 645.117 250.969 L 645.117 250.969 Q 647.063 250.969 648.129 252 L 648.129 252 L 648.129 252 Q 649.195 253.031 649.195 254.953 L 649.195 254.953 L 649.195 254.953 Q 649.195 256.805 648.117 257.871 L 648.117 257.871 L 648.117 257.871 Q 647.039 258.938 645.117 258.938 L 645.117 258.938 L 645.117 258.938 Q 643.148 258.938 642.07 257.895 L 642.07 257.895 L 642.07 257.895 Q 640.992 256.852 640.992 254.953 Z " fill="rgb(0,0,0)"/><path d=" M 599.813 236.695 L 599.813 236.695 L 599.813 236.695 Q 597.539 236.695 596.25 238.137 L 596.25 238.137 L 596.25 238.137 Q 594.961 239.578 594.773 242.227 L 594.773 242.227 L 604.805 242.227 L 604.805 242.227 Q 604.758 239.578 603.422 238.137 L 603.422 238.137 L 603.422 238.137 Q 602.086 236.695 599.813 236.695 Z  M 600.82 258.773 L 600.82 258.773 L 600.82 258.773 Q 594.492 258.773 590.93 255.281 L 590.93 255.281 L 590.93 255.281 Q 587.367 251.789 587.367 245.391 L 587.367 245.391 L 587.367 245.391 Q 587.367 238.805 590.66 235.207 L 590.66 235.207 L 590.66 235.207 Q 593.953 231.609 599.766 231.609 L 599.766 231.609 L 599.766 231.609 Q 605.32 231.609 608.414 234.773 L 608.414 234.773 L 608.414 234.773 Q 611.508 237.938 611.508 243.516 L 611.508 243.516 L 611.508 246.984 L 594.609 246.984 L 594.609 246.984 Q 594.727 250.031 596.414 251.742 L 596.414 251.742 L 596.414 251.742 Q 598.102 253.453 601.148 253.453 L 601.148 253.453 L 601.148 253.453 Q 603.516 253.453 605.625 252.961 L 605.625 252.961 L 605.625 252.961 Q 607.734 252.469 610.031 251.391 L 610.031 251.391 L 610.031 256.922 L 610.031 256.922 Q 608.156 257.859 606.023 258.316 L 606.023 258.316 L 606.023 258.316 Q 603.891 258.773 600.82 258.773 Z  M 627.961 258.773 L 627.961 258.773 L 627.961 258.773 Q 615.727 258.773 615.727 245.344 L 615.727 245.344 L 615.727 245.344 Q 615.727 238.664 619.055 235.137 L 619.055 235.137 L 619.055 235.137 Q 622.383 231.609 628.594 231.609 L 628.594 231.609 L 628.594 231.609 Q 633.141 231.609 636.75 233.391 L 636.75 233.391 L 634.641 238.922 L 634.641 238.922 Q 632.953 238.242 631.5 237.809 L 631.5 237.809 L 631.5 237.809 Q 630.047 237.375 628.594 237.375 L 628.594 237.375 L 628.594 237.375 Q 623.016 237.375 623.016 245.297 L 623.016 245.297 L 623.016 245.297 Q 623.016 252.984 628.594 252.984 L 628.594 252.984 L 628.594 252.984 Q 630.656 252.984 632.414 252.434 L 632.414 252.434 L 632.414 252.434 Q 634.172 251.883 635.93 250.711 L 635.93 250.711 L 635.93 256.828 L 635.93 256.828 Q 634.195 257.93 632.426 258.352 L 632.426 258.352 L 632.426 258.352 Q 630.656 258.773 627.961 258.773 Z " fill="rgb(255,0,0)"/><path d=" M 537.891 258.773 L 537.891 258.773 L 537.891 258.773 Q 533.273 258.773 530.637 255.188 L 530.637 255.188 L 530.637 255.188 Q 528 251.602 528 245.25 L 528 245.25 L 528 245.25 Q 528 238.805 530.684 235.207 L 530.684 235.207 L 530.684 235.207 Q 533.367 231.609 538.078 231.609 L 538.078 231.609 L 538.078 231.609 Q 543.023 231.609 545.625 235.453 L 545.625 235.453 L 545.859 235.453 L 545.859 235.453 Q 545.32 232.523 545.32 230.227 L 545.32 230.227 L 545.32 221.836 L 552.492 221.836 L 552.492 258.305 L 547.008 258.305 L 545.625 254.906 L 545.32 254.906 L 545.32 254.906 Q 542.883 258.773 537.891 258.773 Z  M 540.398 253.078 L 540.398 253.078 L 540.398 253.078 Q 543.141 253.078 544.418 251.484 L 544.418 251.484 L 544.418 251.484 Q 545.695 249.891 545.813 246.07 L 545.813 246.07 L 545.813 245.297 L 545.813 245.297 Q 545.813 241.078 544.512 239.25 L 544.512 239.25 L 544.512 239.25 Q 543.211 237.422 540.281 237.422 L 540.281 237.422 L 540.281 237.422 Q 537.891 237.422 536.566 239.449 L 536.566 239.449 L 536.566 239.449 Q 535.242 241.477 535.242 245.344 L 535.242 245.344 L 535.242 245.344 Q 535.242 249.211 536.578 251.145 L 536.578 251.145 L 536.578 251.145 Q 537.914 253.078 540.398 253.078 Z  M 581.602 258.305 L 576.609 258.305 L 575.227 254.742 L 575.039 254.742 L 575.039 254.742 Q 573.234 257.016 571.324 257.895 L 571.324 257.895 L 571.324 257.895 Q 569.414 258.773 566.344 258.773 L 566.344 258.773 L 566.344 258.773 Q 562.57 258.773 560.402 256.617 L 560.402 256.617 L 560.402 256.617 Q 558.234 254.461 558.234 250.477 L 558.234 250.477 L 558.234 250.477 Q 558.234 246.305 561.152 244.324 L 561.152 244.324 L 561.152 244.324 Q 564.07 242.344 569.953 242.133 L 569.953 242.133 L 574.5 241.992 L 574.5 240.844 L 574.5 240.844 Q 574.5 236.859 570.422 236.859 L 570.422 236.859 L 570.422 236.859 Q 567.281 236.859 563.039 238.758 L 563.039 238.758 L 560.672 233.93 L 560.672 233.93 Q 565.195 231.563 570.703 231.563 L 570.703 231.563 L 570.703 231.563 Q 575.977 231.563 578.789 233.859 L 578.789 233.859 L 578.789 233.859 Q 581.602 236.156 581.602 240.844 L 581.602 240.844 L 581.602 258.305 L 581.602 258.305 Z  M 574.5 248.32 L 574.5 246.164 L 571.734 246.258 L 571.734 246.258 Q 568.617 246.352 567.094 247.383 L 567.094 247.383 L 567.094 247.383 Q 565.57 248.414 565.57 250.523 L 565.57 250.523 L 565.57 250.523 Q 565.57 253.547 569.039 253.547 L 569.039 253.547 L 569.039 253.547 Q 571.523 253.547 573.012 252.117 L 573.012 252.117 L 573.012 252.117 Q 574.5 250.688 574.5 248.32 L 574.5 248.32 L 574.5 248.32 Z " fill="rgb(0,0,255)"/><path d=" M 463.383 258.305 L 458.391 258.305 L 457.008 254.742 L 456.82 254.742 L 456.82 254.742 Q 455.016 257.016 453.105 257.895 L 453.105 257.895 L 453.105 257.895 Q 451.195 258.773 448.125 258.773 L 448.125 258.773 L 448.125 258.773 Q 444.352 258.773 442.184 256.617 L 442.184 256.617 L 442.184 256.617 Q 440.016 254.461 440.016 250.477 L 440.016 250.477 L 440.016 250.477 Q 440.016 246.305 442.934 244.324 L 442.934 244.324 L 442.934 244.324 Q 445.852 242.344 451.734 242.133 L 451.734 242.133 L 456.281 241.992 L 456.281 240.844 L 456.281 240.844 Q 456.281 236.859 452.203 236.859 L 452.203 236.859 L 452.203 236.859 Q 449.063 236.859 444.82 238.758 L 444.82 238.758 L 442.453 233.93 L 442.453 233.93 Q 446.977 231.563 452.484 231.563 L 452.484 231.563 L 452.484 231.563 Q 457.758 231.563 460.57 233.859 L 460.57 233.859 L 460.57 233.859 Q 463.383 236.156 463.383 240.844 L 463.383 240.844 L 463.383 258.305 L 463.383 258.305 Z  M 456.281 248.32 L 456.281 246.164 L 453.516 246.258 L 453.516 246.258 Q 450.398 246.352 448.875 247.383 L 448.875 247.383 L 448.875 247.383 Q 447.352 248.414 447.352 250.523 L 447.352 250.523 L 447.352 250.523 Q 447.352 253.547 450.82 253.547 L 450.82 253.547 L 450.82 253.547 Q 453.305 253.547 454.793 252.117 L 454.793 252.117 L 454.793 252.117 Q 456.281 250.688 456.281 248.32 L 456.281 248.32 L 456.281 248.32 Z  M 477.398 258.117 L 466.992 232.102 L 474.82 232.102 L 479.766 246.844 L 479.766 246.844 Q 480.398 248.766 480.633 251.391 L 480.633 251.391 L 480.773 251.391 L 480.773 251.391 Q 481.031 248.977 481.781 246.844 L 481.781 246.844 L 486.633 232.102 L 494.297 232.102 L 483.211 261.656 L 483.211 261.656 Q 481.688 265.758 478.863 267.797 L 478.863 267.797 L 478.863 267.797 Q 476.039 269.836 472.266 269.836 L 472.266 269.836 L 472.266 269.836 Q 470.414 269.836 468.633 269.438 L 468.633 269.438 L 468.633 263.766 L 468.633 263.766 Q 469.922 264.07 471.445 264.07 L 471.445 264.07 L 471.445 264.07 Q 473.344 264.07 474.762 262.91 L 474.762 262.91 L 474.762 262.91 Q 476.18 261.75 476.977 259.406 L 476.977 259.406 L 477.398 258.117 Z  M 522.094 258.305 L 516.609 258.305 L 515.648 254.953 L 515.273 254.953 L 515.273 254.953 Q 514.125 256.781 512.016 257.777 L 512.016 257.777 L 512.016 257.777 Q 509.906 258.773 507.211 258.773 L 507.211 258.773 L 507.211 258.773 Q 502.594 258.773 500.25 256.301 L 500.25 256.301 L 500.25 256.301 Q 497.906 253.828 497.906 249.188 L 497.906 249.188 L 497.906 232.102 L 505.055 232.102 L 505.055 247.406 L 505.055 247.406 Q 505.055 250.242 506.063 251.66 L 506.063 251.66 L 506.063 251.66 Q 507.07 253.078 509.273 253.078 L 509.273 253.078 L 509.273 253.078 Q 512.273 253.078 513.609 251.074 L 513.609 251.074 L 513.609 251.074 Q 514.945 249.07 514.945 244.43 L 514.945 244.43 L 514.945 232.102 L 522.094 232.102 L 522.094 258.305 L 522.094 258.305 Z " fill="rgb(255,255,0)"/></g></svg>